<mxfile host="app.diagrams.net" modified="2024-03-07T15:56:43.895Z" agent="Mozilla/5.0 (Windows NT 10.0; Win64; x64) AppleWebKit/537.36 (KHTML, like Gecko) Chrome/122.0.0.0 Safari/537.36" etag="iEPeZTOQx08w4_Xy2BNb" version="24.0.0" type="device">
  <diagram name="Page-1" id="VqUzpdyyYp5RDYKtt0Db">
    <mxGraphModel dx="2129" dy="628" grid="1" gridSize="10" guides="1" tooltips="1" connect="1" arrows="1" fold="1" page="1" pageScale="1" pageWidth="827" pageHeight="1169" math="0" shadow="0">
      <root>
        <mxCell id="0" />
        <mxCell id="1" parent="0" />
        <mxCell id="pe2fZ5mDCXlig36yHnF_-1" value="" style="rounded=0;whiteSpace=wrap;html=1;" vertex="1" parent="1">
          <mxGeometry x="60" y="30" width="700" height="490" as="geometry" />
        </mxCell>
        <mxCell id="pe2fZ5mDCXlig36yHnF_-2" value="" style="rounded=0;whiteSpace=wrap;html=1;" vertex="1" parent="1">
          <mxGeometry x="60" y="30" width="320" height="30" as="geometry" />
        </mxCell>
        <mxCell id="pe2fZ5mDCXlig36yHnF_-3" value="MIROS Road Safety Management System - Use Cases" style="text;html=1;strokeColor=none;fillColor=none;align=center;verticalAlign=middle;whiteSpace=wrap;rounded=0;" vertex="1" parent="1">
          <mxGeometry x="64" y="32.5" width="306" height="25" as="geometry" />
        </mxCell>
        <mxCell id="pe2fZ5mDCXlig36yHnF_-4" value="Research&lt;div&gt;Officer&lt;/div&gt;" style="shape=umlActor;verticalLabelPosition=bottom;verticalAlign=top;html=1;outlineConnect=0;" vertex="1" parent="1">
          <mxGeometry x="10" y="255" width="20" height="40" as="geometry" />
        </mxCell>
        <mxCell id="pe2fZ5mDCXlig36yHnF_-5" value="Top&lt;div&gt;Management&lt;/div&gt;" style="shape=umlActor;verticalLabelPosition=bottom;verticalAlign=top;html=1;outlineConnect=0;" vertex="1" parent="1">
          <mxGeometry x="790" y="385" width="20" height="35" as="geometry" />
        </mxCell>
        <mxCell id="pe2fZ5mDCXlig36yHnF_-6" value="Immediate&lt;div&gt;Supervisor&lt;/div&gt;" style="shape=umlActor;verticalLabelPosition=bottom;verticalAlign=top;html=1;outlineConnect=0;" vertex="1" parent="1">
          <mxGeometry x="790" y="150" width="20" height="40" as="geometry" />
        </mxCell>
        <mxCell id="pe2fZ5mDCXlig36yHnF_-10" value="Log-in to system" style="ellipse;whiteSpace=wrap;html=1;" vertex="1" parent="1">
          <mxGeometry x="301" y="430" width="123.62" height="40" as="geometry" />
        </mxCell>
        <mxCell id="pe2fZ5mDCXlig36yHnF_-12" value="Invalid credentials" style="ellipse;whiteSpace=wrap;html=1;" vertex="1" parent="1">
          <mxGeometry x="402.5" y="470" width="91.5" height="40" as="geometry" />
        </mxCell>
        <mxCell id="pe2fZ5mDCXlig36yHnF_-15" value="" style="endArrow=classic;html=1;rounded=0;entryX=1;entryY=0;entryDx=0;entryDy=0;" edge="1" parent="1" target="pe2fZ5mDCXlig36yHnF_-10">
          <mxGeometry width="50" height="50" relative="1" as="geometry">
            <mxPoint x="790" y="170" as="sourcePoint" />
            <mxPoint x="575.9360728109518" y="375.82640256751733" as="targetPoint" />
          </mxGeometry>
        </mxCell>
        <mxCell id="pe2fZ5mDCXlig36yHnF_-22" value="View KPI/work targets" style="ellipse;whiteSpace=wrap;html=1;" vertex="1" parent="1">
          <mxGeometry x="220" y="110" width="110" height="40" as="geometry" />
        </mxCell>
        <mxCell id="pe2fZ5mDCXlig36yHnF_-27" value="" style="endArrow=classic;html=1;rounded=0;entryX=0;entryY=0.5;entryDx=0;entryDy=0;" edge="1" parent="1" target="pe2fZ5mDCXlig36yHnF_-22">
          <mxGeometry width="50" height="50" relative="1" as="geometry">
            <mxPoint x="30" y="280" as="sourcePoint" />
            <mxPoint x="440" y="220" as="targetPoint" />
          </mxGeometry>
        </mxCell>
        <mxCell id="pe2fZ5mDCXlig36yHnF_-28" value="" style="endArrow=classic;html=1;rounded=0;entryX=0;entryY=0.5;entryDx=0;entryDy=0;" edge="1" parent="1" target="pe2fZ5mDCXlig36yHnF_-10">
          <mxGeometry width="50" height="50" relative="1" as="geometry">
            <mxPoint x="30" y="280" as="sourcePoint" />
            <mxPoint x="440" y="220" as="targetPoint" />
          </mxGeometry>
        </mxCell>
        <mxCell id="pe2fZ5mDCXlig36yHnF_-37" value="&amp;lt;&amp;lt; include &amp;gt;&amp;gt;" style="endArrow=open;endSize=12;dashed=1;html=1;rounded=0;entryX=1;entryY=0;entryDx=0;entryDy=0;exitX=0;exitY=1;exitDx=0;exitDy=0;" edge="1" parent="1" source="pe2fZ5mDCXlig36yHnF_-10" target="pe2fZ5mDCXlig36yHnF_-38">
          <mxGeometry width="160" relative="1" as="geometry">
            <mxPoint x="370" y="299" as="sourcePoint" />
            <mxPoint x="430" y="370" as="targetPoint" />
          </mxGeometry>
        </mxCell>
        <mxCell id="pe2fZ5mDCXlig36yHnF_-38" value="Validate user" style="ellipse;whiteSpace=wrap;html=1;" vertex="1" parent="1">
          <mxGeometry x="130" y="470" width="90" height="40" as="geometry" />
        </mxCell>
        <mxCell id="pe2fZ5mDCXlig36yHnF_-39" value="&amp;lt;&amp;lt; extend &amp;gt;&amp;gt;" style="endArrow=open;endSize=12;dashed=1;html=1;rounded=0;exitX=0;exitY=0.5;exitDx=0;exitDy=0;entryX=1;entryY=0.5;entryDx=0;entryDy=0;" edge="1" parent="1" source="pe2fZ5mDCXlig36yHnF_-12" target="pe2fZ5mDCXlig36yHnF_-38">
          <mxGeometry width="160" relative="1" as="geometry">
            <mxPoint x="299" y="325" as="sourcePoint" />
            <mxPoint x="240" y="470" as="targetPoint" />
          </mxGeometry>
        </mxCell>
        <mxCell id="pe2fZ5mDCXlig36yHnF_-42" value="" style="endArrow=classic;html=1;rounded=0;" edge="1" parent="1">
          <mxGeometry width="50" height="50" relative="1" as="geometry">
            <mxPoint x="800" y="380" as="sourcePoint" />
            <mxPoint x="800" y="230" as="targetPoint" />
          </mxGeometry>
        </mxCell>
        <mxCell id="pe2fZ5mDCXlig36yHnF_-45" value="" style="endArrow=classic;html=1;rounded=0;entryX=1;entryY=0.5;entryDx=0;entryDy=0;" edge="1" parent="1" source="pe2fZ5mDCXlig36yHnF_-6" target="pe2fZ5mDCXlig36yHnF_-22">
          <mxGeometry width="50" height="50" relative="1" as="geometry">
            <mxPoint x="780" y="180" as="sourcePoint" />
            <mxPoint x="350" y="150" as="targetPoint" />
          </mxGeometry>
        </mxCell>
        <mxCell id="pe2fZ5mDCXlig36yHnF_-47" value="&amp;lt;&amp;lt; include &amp;gt;&amp;gt;" style="endArrow=open;endSize=12;dashed=1;html=1;rounded=0;entryX=0;entryY=0.5;entryDx=0;entryDy=0;exitX=0.5;exitY=0;exitDx=0;exitDy=0;" edge="1" parent="1" source="pe2fZ5mDCXlig36yHnF_-22" target="pe2fZ5mDCXlig36yHnF_-48">
          <mxGeometry x="-0.0002" width="160" relative="1" as="geometry">
            <mxPoint x="325" y="108" as="sourcePoint" />
            <mxPoint x="210" y="150" as="targetPoint" />
            <mxPoint as="offset" />
          </mxGeometry>
        </mxCell>
        <mxCell id="pe2fZ5mDCXlig36yHnF_-48" value="Notify supervisor when met" style="ellipse;whiteSpace=wrap;html=1;" vertex="1" parent="1">
          <mxGeometry x="392.5" y="40" width="117" height="50" as="geometry" />
        </mxCell>
        <mxCell id="pe2fZ5mDCXlig36yHnF_-49" value="Real-time updates" style="ellipse;whiteSpace=wrap;html=1;" vertex="1" parent="1">
          <mxGeometry x="130" y="200" width="70" height="50" as="geometry" />
        </mxCell>
        <mxCell id="pe2fZ5mDCXlig36yHnF_-50" value="&amp;lt;&amp;lt; include &amp;gt;&amp;gt;" style="endArrow=open;endSize=12;dashed=1;html=1;rounded=0;exitX=0;exitY=1;exitDx=0;exitDy=0;" edge="1" parent="1" source="pe2fZ5mDCXlig36yHnF_-22" target="pe2fZ5mDCXlig36yHnF_-49">
          <mxGeometry x="-0.0002" width="160" relative="1" as="geometry">
            <mxPoint x="286" y="120" as="sourcePoint" />
            <mxPoint x="423" y="85" as="targetPoint" />
            <mxPoint as="offset" />
          </mxGeometry>
        </mxCell>
        <mxCell id="pe2fZ5mDCXlig36yHnF_-51" value="&amp;lt;&amp;lt; extend &amp;gt;&amp;gt;" style="endArrow=open;endSize=12;dashed=1;html=1;rounded=0;entryX=0.951;entryY=0.314;entryDx=0;entryDy=0;exitX=0;exitY=0.5;exitDx=0;exitDy=0;entryPerimeter=0;" edge="1" parent="1" source="pe2fZ5mDCXlig36yHnF_-53" target="pe2fZ5mDCXlig36yHnF_-49">
          <mxGeometry width="160" relative="1" as="geometry">
            <mxPoint x="370" y="220" as="sourcePoint" />
            <mxPoint x="233" y="220" as="targetPoint" />
          </mxGeometry>
        </mxCell>
        <mxCell id="pe2fZ5mDCXlig36yHnF_-53" value="Colour coded progress" style="ellipse;whiteSpace=wrap;html=1;" vertex="1" parent="1">
          <mxGeometry x="312.12000000000006" y="150" width="112.5" height="40" as="geometry" />
        </mxCell>
        <mxCell id="pe2fZ5mDCXlig36yHnF_-54" value="Submit research" style="ellipse;whiteSpace=wrap;html=1;" vertex="1" parent="1">
          <mxGeometry x="250" y="220" width="87" height="50" as="geometry" />
        </mxCell>
        <mxCell id="pe2fZ5mDCXlig36yHnF_-55" value="" style="endArrow=classic;html=1;rounded=0;entryX=0;entryY=0.5;entryDx=0;entryDy=0;" edge="1" parent="1" target="pe2fZ5mDCXlig36yHnF_-54">
          <mxGeometry width="50" height="50" relative="1" as="geometry">
            <mxPoint x="30" y="280" as="sourcePoint" />
            <mxPoint x="358" y="430" as="targetPoint" />
          </mxGeometry>
        </mxCell>
        <mxCell id="pe2fZ5mDCXlig36yHnF_-56" value="Invalid Information" style="ellipse;whiteSpace=wrap;html=1;" vertex="1" parent="1">
          <mxGeometry x="460" y="160" width="87" height="50" as="geometry" />
        </mxCell>
        <mxCell id="pe2fZ5mDCXlig36yHnF_-57" value="&amp;lt;&amp;lt; extend &amp;gt;&amp;gt;" style="endArrow=open;endSize=12;dashed=1;html=1;rounded=0;exitX=0;exitY=0.5;exitDx=0;exitDy=0;entryX=1;entryY=0.5;entryDx=0;entryDy=0;" edge="1" parent="1" source="pe2fZ5mDCXlig36yHnF_-56" target="pe2fZ5mDCXlig36yHnF_-54">
          <mxGeometry width="160" relative="1" as="geometry">
            <mxPoint x="407" y="224.57999999999998" as="sourcePoint" />
            <mxPoint x="270" y="224.57999999999998" as="targetPoint" />
          </mxGeometry>
        </mxCell>
        <mxCell id="pe2fZ5mDCXlig36yHnF_-58" value="Submission verification" style="ellipse;whiteSpace=wrap;html=1;" vertex="1" parent="1">
          <mxGeometry x="440" y="220" width="87" height="50" as="geometry" />
        </mxCell>
        <mxCell id="pe2fZ5mDCXlig36yHnF_-59" value="" style="endArrow=classic;html=1;rounded=0;entryX=1.045;entryY=0.37;entryDx=0;entryDy=0;entryPerimeter=0;" edge="1" parent="1" target="pe2fZ5mDCXlig36yHnF_-58">
          <mxGeometry width="50" height="50" relative="1" as="geometry">
            <mxPoint x="790" y="170" as="sourcePoint" />
            <mxPoint x="464" y="416" as="targetPoint" />
          </mxGeometry>
        </mxCell>
        <mxCell id="pe2fZ5mDCXlig36yHnF_-60" value="&amp;lt;&amp;lt; include &amp;gt;&amp;gt;" style="endArrow=open;endSize=12;dashed=1;html=1;rounded=0;exitX=0.969;exitY=0.679;exitDx=0;exitDy=0;exitPerimeter=0;entryX=0.052;entryY=0.768;entryDx=0;entryDy=0;entryPerimeter=0;" edge="1" parent="1" source="pe2fZ5mDCXlig36yHnF_-54" target="pe2fZ5mDCXlig36yHnF_-58">
          <mxGeometry x="-0.0002" width="160" relative="1" as="geometry">
            <mxPoint x="247" y="154" as="sourcePoint" />
            <mxPoint x="201" y="212" as="targetPoint" />
            <mxPoint as="offset" />
          </mxGeometry>
        </mxCell>
        <mxCell id="pe2fZ5mDCXlig36yHnF_-61" value="" style="endArrow=classic;html=1;rounded=0;entryX=1;entryY=0;entryDx=0;entryDy=0;" edge="1" parent="1" target="pe2fZ5mDCXlig36yHnF_-62">
          <mxGeometry width="50" height="50" relative="1" as="geometry">
            <mxPoint x="790" y="170" as="sourcePoint" />
            <mxPoint x="541" y="249" as="targetPoint" />
          </mxGeometry>
        </mxCell>
        <mxCell id="pe2fZ5mDCXlig36yHnF_-62" value="View assigned research officers" style="ellipse;whiteSpace=wrap;html=1;" vertex="1" parent="1">
          <mxGeometry x="392.25" y="320" width="112" height="45" as="geometry" />
        </mxCell>
        <mxCell id="pe2fZ5mDCXlig36yHnF_-63" value="&amp;lt;&amp;lt; include &amp;gt;&amp;gt;" style="endArrow=open;endSize=12;dashed=1;html=1;rounded=0;entryX=0.96;entryY=0.21;entryDx=0;entryDy=0;exitX=0.257;exitY=0.928;exitDx=0;exitDy=0;exitPerimeter=0;entryPerimeter=0;" edge="1" parent="1" source="pe2fZ5mDCXlig36yHnF_-58" target="pe2fZ5mDCXlig36yHnF_-64">
          <mxGeometry width="160" relative="1" as="geometry">
            <mxPoint x="343" y="180" as="sourcePoint" />
            <mxPoint x="214" y="217" as="targetPoint" />
          </mxGeometry>
        </mxCell>
        <mxCell id="pe2fZ5mDCXlig36yHnF_-64" value="Submission denial/feedback" style="ellipse;whiteSpace=wrap;html=1;" vertex="1" parent="1">
          <mxGeometry x="280.00000000000006" y="290" width="112.5" height="40" as="geometry" />
        </mxCell>
        <mxCell id="pe2fZ5mDCXlig36yHnF_-65" value="&amp;lt;&amp;lt; include &amp;gt;&amp;gt;" style="endArrow=open;endSize=12;dashed=1;html=1;rounded=0;entryX=0.65;entryY=0.01;entryDx=0;entryDy=0;exitX=0;exitY=0.5;exitDx=0;exitDy=0;entryPerimeter=0;" edge="1" parent="1" source="pe2fZ5mDCXlig36yHnF_-62" target="pe2fZ5mDCXlig36yHnF_-66">
          <mxGeometry width="160" relative="1" as="geometry">
            <mxPoint x="392.25" y="333" as="sourcePoint" />
            <mxPoint x="318.25" y="365" as="targetPoint" />
          </mxGeometry>
        </mxCell>
        <mxCell id="pe2fZ5mDCXlig36yHnF_-66" value="Order by KPI ranking" style="ellipse;whiteSpace=wrap;html=1;" vertex="1" parent="1">
          <mxGeometry x="237.25000000000006" y="370" width="112.5" height="40" as="geometry" />
        </mxCell>
        <mxCell id="pe2fZ5mDCXlig36yHnF_-67" value="Set KPI/work targets" style="ellipse;whiteSpace=wrap;html=1;" vertex="1" parent="1">
          <mxGeometry x="560" y="70" width="110" height="40" as="geometry" />
        </mxCell>
        <mxCell id="pe2fZ5mDCXlig36yHnF_-68" value="" style="endArrow=classic;html=1;rounded=0;entryX=0.793;entryY=0.888;entryDx=0;entryDy=0;entryPerimeter=0;" edge="1" parent="1" target="pe2fZ5mDCXlig36yHnF_-67">
          <mxGeometry width="50" height="50" relative="1" as="geometry">
            <mxPoint x="790" y="170" as="sourcePoint" />
            <mxPoint x="340" y="140" as="targetPoint" />
          </mxGeometry>
        </mxCell>
        <mxCell id="pe2fZ5mDCXlig36yHnF_-69" value="&amp;lt;&amp;lt; include &amp;gt;&amp;gt;" style="endArrow=open;endSize=12;dashed=1;html=1;rounded=0;entryX=0.959;entryY=0.288;entryDx=0;entryDy=0;exitX=0;exitY=0.5;exitDx=0;exitDy=0;entryPerimeter=0;" edge="1" parent="1" source="pe2fZ5mDCXlig36yHnF_-67" target="pe2fZ5mDCXlig36yHnF_-22">
          <mxGeometry x="-0.0002" width="160" relative="1" as="geometry">
            <mxPoint x="285" y="120" as="sourcePoint" />
            <mxPoint x="403" y="75" as="targetPoint" />
            <mxPoint as="offset" />
          </mxGeometry>
        </mxCell>
        <mxCell id="pe2fZ5mDCXlig36yHnF_-71" value="View all employees" style="ellipse;whiteSpace=wrap;html=1;" vertex="1" parent="1">
          <mxGeometry x="547" y="400" width="91.5" height="40" as="geometry" />
        </mxCell>
        <mxCell id="pe2fZ5mDCXlig36yHnF_-72" value="" style="endArrow=classic;html=1;rounded=0;entryX=1;entryY=0.5;entryDx=0;entryDy=0;" edge="1" parent="1" target="pe2fZ5mDCXlig36yHnF_-71">
          <mxGeometry width="50" height="50" relative="1" as="geometry">
            <mxPoint x="800" y="380" as="sourcePoint" />
            <mxPoint x="810" y="240" as="targetPoint" />
          </mxGeometry>
        </mxCell>
        <mxCell id="pe2fZ5mDCXlig36yHnF_-73" value="&amp;lt;&amp;lt; include &amp;gt;&amp;gt;" style="endArrow=open;endSize=12;dashed=1;html=1;rounded=0;entryX=1;entryY=0.5;entryDx=0;entryDy=0;exitX=0;exitY=0.5;exitDx=0;exitDy=0;" edge="1" parent="1" source="pe2fZ5mDCXlig36yHnF_-71" target="pe2fZ5mDCXlig36yHnF_-66">
          <mxGeometry width="160" relative="1" as="geometry">
            <mxPoint x="402" y="353" as="sourcePoint" />
            <mxPoint x="320" y="380" as="targetPoint" />
          </mxGeometry>
        </mxCell>
      </root>
    </mxGraphModel>
  </diagram>
</mxfile>
